<svg xmlns="http://www.w3.org/2000/svg" xmlns:xlink="http://www.w3.org/1999/xlink" width="100" zoomAndPan="magnify" viewBox="0 0 75 37.5" height="50" preserveAspectRatio="xMidYMid meet" version="1.0"><defs><g/><clipPath id="4fd68942cc"><path d="M 10 4.738281 L 15 4.738281 L 15 9 L 10 9 Z M 10 4.738281 " clip-rule="nonzero"/></clipPath><clipPath id="954a7a0cd4"><path d="M 9.257812 9 L 15.746094 9 L 15.746094 23.875 L 9.257812 23.875 Z M 9.257812 9 " clip-rule="nonzero"/></clipPath><clipPath id="a30691fb5b"><path d="M 66 16 L 74.503906 16 L 74.503906 27 L 66 27 Z M 66 16 " clip-rule="nonzero"/></clipPath></defs><g clip-path="url(#4fd68942cc)"><path fill="#ffffff" d="M 12.523438 8.660156 C 12.78125 8.660156 13.03125 8.609375 13.273438 8.511719 C 13.511719 8.410156 13.722656 8.269531 13.910156 8.085938 C 14.09375 7.902344 14.234375 7.6875 14.332031 7.449219 C 14.433594 7.207031 14.484375 6.957031 14.484375 6.699219 C 14.484375 6.4375 14.433594 6.1875 14.332031 5.949219 C 14.234375 5.707031 14.09375 5.496094 13.910156 5.3125 C 13.722656 5.128906 13.511719 4.984375 13.273438 4.886719 C 13.03125 4.785156 12.78125 4.738281 12.519531 4.738281 C 12.261719 4.738281 12.011719 4.785156 11.769531 4.886719 C 11.53125 4.984375 11.320312 5.128906 11.132812 5.3125 C 10.949219 5.496094 10.808594 5.707031 10.710938 5.949219 C 10.609375 6.1875 10.558594 6.4375 10.558594 6.699219 C 10.558594 6.957031 10.609375 7.207031 10.710938 7.449219 C 10.808594 7.6875 10.949219 7.902344 11.132812 8.085938 C 11.320312 8.269531 11.53125 8.410156 11.769531 8.511719 C 12.011719 8.609375 12.261719 8.660156 12.523438 8.660156 Z M 12.523438 8.660156 " fill-opacity="1" fill-rule="nonzero"/></g><g clip-path="url(#954a7a0cd4)"><path fill="#ffffff" d="M 14.292969 9.953125 L 10.75 9.953125 C 10.554688 9.953125 10.363281 9.992188 10.179688 10.066406 C 9.996094 10.144531 9.835938 10.25 9.695312 10.390625 C 9.554688 10.53125 9.449219 10.691406 9.371094 10.875 C 9.296875 11.058594 9.257812 11.25 9.257812 11.445312 L 9.257812 16.707031 C 9.257812 16.894531 9.292969 17.074219 9.363281 17.25 C 9.433594 17.425781 9.53125 17.582031 9.660156 17.71875 C 9.789062 17.855469 9.9375 17.964844 10.105469 18.046875 C 10.277344 18.125 10.457031 18.171875 10.644531 18.1875 L 10.644531 22.683594 C 10.644531 22.84375 10.671875 22.996094 10.734375 23.144531 C 10.796875 23.292969 10.882812 23.421875 10.996094 23.535156 C 11.105469 23.648438 11.238281 23.734375 11.382812 23.792969 C 11.53125 23.855469 11.683594 23.886719 11.84375 23.886719 L 13.199219 23.886719 C 13.359375 23.886719 13.511719 23.855469 13.660156 23.792969 C 13.804688 23.734375 13.9375 23.648438 14.046875 23.535156 C 14.160156 23.421875 14.246094 23.292969 14.308594 23.144531 C 14.371094 22.996094 14.398438 22.84375 14.398438 22.683594 L 14.398438 18.1875 C 14.585938 18.171875 14.765625 18.125 14.9375 18.046875 C 15.105469 17.964844 15.253906 17.855469 15.382812 17.71875 C 15.511719 17.582031 15.609375 17.425781 15.679688 17.25 C 15.75 17.074219 15.785156 16.894531 15.785156 16.707031 L 15.785156 11.445312 C 15.785156 11.25 15.746094 11.058594 15.671875 10.875 C 15.59375 10.691406 15.488281 10.53125 15.347656 10.390625 C 15.207031 10.25 15.046875 10.144531 14.863281 10.066406 C 14.679688 9.992188 14.488281 9.953125 14.292969 9.953125 Z M 14.292969 9.953125 " fill-opacity="1" fill-rule="nonzero"/></g><g fill="#ffffff" fill-opacity="1"><g transform="translate(0.493421, 22.699058)"><g><path d="M 7.59375 -5.796875 C 8.21875 -5.117188 8.53125 -4.285156 8.53125 -3.296875 C 8.53125 -2.316406 8.21875 -1.488281 7.59375 -0.8125 C 6.976562 -0.144531 6.191406 0.1875 5.234375 0.1875 C 4.359375 0.1875 3.632812 -0.125 3.0625 -0.75 L 3.03125 -0.75 L 3.03125 0 L 0.78125 0 L 0.78125 -11.109375 L 3.0625 -11.109375 L 3.0625 -6 C 3.632812 -6.550781 4.359375 -6.828125 5.234375 -6.828125 C 6.191406 -6.828125 6.976562 -6.484375 7.59375 -5.796875 Z M 5.671875 -2.1875 C 5.953125 -2.476562 6.09375 -2.851562 6.09375 -3.3125 C 6.09375 -3.769531 5.941406 -4.144531 5.640625 -4.4375 C 5.347656 -4.726562 4.984375 -4.875 4.546875 -4.875 C 4.117188 -4.875 3.753906 -4.726562 3.453125 -4.4375 C 3.160156 -4.144531 3.015625 -3.769531 3.015625 -3.3125 C 3.015625 -2.863281 3.15625 -2.488281 3.4375 -2.1875 C 3.726562 -1.894531 4.097656 -1.75 4.546875 -1.75 C 5.015625 -1.75 5.390625 -1.894531 5.671875 -2.1875 Z M 5.671875 -2.1875 "/></g></g></g><g fill="#ffffff" fill-opacity="1"><g transform="translate(9.316125, 22.699058)"><g/></g></g><g fill="#ffffff" fill-opacity="1"><g transform="translate(12.842151, 22.699058)"><g/></g></g><g fill="#ffffff" fill-opacity="1"><g transform="translate(16.369803, 22.699058)"><g><path d="M 1.390625 -0.78125 C 0.660156 -1.4375 0.296875 -2.273438 0.296875 -3.296875 C 0.296875 -4.328125 0.675781 -5.171875 1.4375 -5.828125 C 2.207031 -6.492188 3.160156 -6.828125 4.296875 -6.828125 C 5.398438 -6.828125 6.332031 -6.492188 7.09375 -5.828125 C 7.863281 -5.160156 8.25 -4.316406 8.25 -3.296875 C 8.25 -2.285156 7.875 -1.453125 7.125 -0.796875 C 6.382812 -0.140625 5.441406 0.1875 4.296875 0.1875 C 3.097656 0.1875 2.128906 -0.132812 1.390625 -0.78125 Z M 3.171875 -4.4375 C 2.867188 -4.144531 2.71875 -3.769531 2.71875 -3.3125 C 2.71875 -2.851562 2.859375 -2.476562 3.140625 -2.1875 C 3.429688 -1.894531 3.8125 -1.75 4.28125 -1.75 C 4.726562 -1.75 5.09375 -1.894531 5.375 -2.1875 C 5.664062 -2.488281 5.8125 -2.863281 5.8125 -3.3125 C 5.8125 -3.769531 5.660156 -4.144531 5.359375 -4.4375 C 5.066406 -4.726562 4.707031 -4.875 4.28125 -4.875 C 3.84375 -4.875 3.472656 -4.726562 3.171875 -4.4375 Z M 3.171875 -4.4375 "/></g></g></g><g fill="#ffffff" fill-opacity="1"><g transform="translate(24.907175, 22.699058)"><g><path d="M 0.484375 1.625 L 2.359375 0.703125 C 2.703125 1.273438 3.296875 1.5625 4.140625 1.5625 C 4.546875 1.5625 4.914062 1.429688 5.25 1.171875 C 5.59375 0.921875 5.765625 0.535156 5.765625 0.015625 L 5.765625 -0.484375 C 5.359375 -0.0351562 4.632812 0.1875 3.59375 0.1875 C 2.632812 0.1875 1.84375 -0.144531 1.21875 -0.8125 C 0.601562 -1.488281 0.296875 -2.316406 0.296875 -3.296875 C 0.296875 -4.285156 0.601562 -5.117188 1.21875 -5.796875 C 1.84375 -6.484375 2.632812 -6.828125 3.59375 -6.828125 C 4.445312 -6.828125 5.15625 -6.5625 5.71875 -6.03125 L 5.765625 -6.03125 L 5.765625 -6.625 L 8.046875 -6.625 L 8.046875 0.1875 C 8.046875 1.257812 7.6875 2.085938 6.96875 2.671875 C 6.257812 3.253906 5.316406 3.546875 4.140625 3.546875 C 2.253906 3.546875 1.035156 2.90625 0.484375 1.625 Z M 3.171875 -4.4375 C 2.867188 -4.144531 2.71875 -3.769531 2.71875 -3.3125 C 2.71875 -2.851562 2.859375 -2.476562 3.140625 -2.1875 C 3.429688 -1.894531 3.8125 -1.75 4.28125 -1.75 C 4.726562 -1.75 5.09375 -1.894531 5.375 -2.1875 C 5.664062 -2.488281 5.8125 -2.863281 5.8125 -3.3125 C 5.8125 -3.769531 5.660156 -4.144531 5.359375 -4.4375 C 5.066406 -4.726562 4.707031 -4.875 4.28125 -4.875 C 3.84375 -4.875 3.472656 -4.726562 3.171875 -4.4375 Z M 3.171875 -4.4375 "/></g></g></g><g fill="#ffffff" fill-opacity="1"><g transform="translate(33.728694, 22.699058)"><g><path d="M 0.78125 0 L 0.78125 -6.625 L 3.0625 -6.625 L 3.0625 -5.671875 L 3.09375 -5.671875 C 3.101562 -5.703125 3.128906 -5.742188 3.171875 -5.796875 C 3.210938 -5.847656 3.296875 -5.9375 3.421875 -6.0625 C 3.554688 -6.195312 3.695312 -6.316406 3.84375 -6.421875 C 3.988281 -6.523438 4.175781 -6.617188 4.40625 -6.703125 C 4.632812 -6.785156 4.867188 -6.828125 5.109375 -6.828125 C 5.359375 -6.828125 5.601562 -6.789062 5.84375 -6.71875 C 6.09375 -6.644531 6.273438 -6.578125 6.390625 -6.515625 L 6.5625 -6.40625 L 5.609375 -4.46875 C 5.328125 -4.707031 4.929688 -4.828125 4.421875 -4.828125 C 4.140625 -4.828125 3.898438 -4.765625 3.703125 -4.640625 C 3.503906 -4.523438 3.363281 -4.378906 3.28125 -4.203125 C 3.207031 -4.035156 3.148438 -3.890625 3.109375 -3.765625 C 3.078125 -3.648438 3.0625 -3.554688 3.0625 -3.484375 L 3.0625 0 Z M 0.78125 0 "/></g></g></g><g fill="#ffffff" fill-opacity="1"><g transform="translate(40.160782, 22.699058)"><g><path d="M 1.21875 -0.8125 C 0.601562 -1.488281 0.296875 -2.316406 0.296875 -3.296875 C 0.296875 -4.285156 0.601562 -5.117188 1.21875 -5.796875 C 1.84375 -6.484375 2.632812 -6.828125 3.59375 -6.828125 C 4.46875 -6.828125 5.191406 -6.550781 5.765625 -6 L 5.765625 -6.625 L 8.046875 -6.625 L 8.046875 0 L 5.78125 0 L 5.78125 -0.75 L 5.765625 -0.75 C 5.191406 -0.125 4.46875 0.1875 3.59375 0.1875 C 2.632812 0.1875 1.84375 -0.144531 1.21875 -0.8125 Z M 3.171875 -4.4375 C 2.867188 -4.144531 2.71875 -3.769531 2.71875 -3.3125 C 2.71875 -2.851562 2.859375 -2.476562 3.140625 -2.1875 C 3.429688 -1.894531 3.8125 -1.75 4.28125 -1.75 C 4.726562 -1.75 5.09375 -1.894531 5.375 -2.1875 C 5.664062 -2.488281 5.8125 -2.863281 5.8125 -3.3125 C 5.8125 -3.769531 5.660156 -4.144531 5.359375 -4.4375 C 5.066406 -4.726562 4.707031 -4.875 4.28125 -4.875 C 3.84375 -4.875 3.472656 -4.726562 3.171875 -4.4375 Z M 3.171875 -4.4375 "/></g></g></g><g fill="#ffffff" fill-opacity="1"><g transform="translate(48.982301, 22.699058)"><g><path d="M 7.59375 -5.8125 C 8.21875 -5.132812 8.53125 -4.300781 8.53125 -3.3125 C 8.53125 -2.332031 8.21875 -1.503906 7.59375 -0.828125 C 6.976562 -0.148438 6.191406 0.1875 5.234375 0.1875 C 4.359375 0.1875 3.632812 -0.0859375 3.0625 -0.640625 L 3.0625 3.359375 L 0.78125 3.359375 L 0.78125 -6.625 L 3.03125 -6.625 L 3.03125 -5.875 L 3.0625 -5.875 C 3.632812 -6.507812 4.359375 -6.828125 5.234375 -6.828125 C 6.191406 -6.828125 6.976562 -6.488281 7.59375 -5.8125 Z M 5.640625 -2.1875 C 5.941406 -2.488281 6.09375 -2.863281 6.09375 -3.3125 C 6.09375 -3.769531 5.953125 -4.144531 5.671875 -4.4375 C 5.390625 -4.726562 5.015625 -4.875 4.546875 -4.875 C 4.097656 -4.875 3.726562 -4.726562 3.4375 -4.4375 C 3.15625 -4.144531 3.015625 -3.773438 3.015625 -3.328125 C 3.015625 -2.867188 3.160156 -2.488281 3.453125 -2.1875 C 3.753906 -1.894531 4.117188 -1.75 4.546875 -1.75 C 4.984375 -1.75 5.347656 -1.894531 5.640625 -2.1875 Z M 5.640625 -2.1875 "/></g></g></g><g fill="#ffffff" fill-opacity="1"><g transform="translate(57.80382, 22.699058)"><g><path d="M 0.78125 0 L 0.78125 -11.109375 L 3.0625 -11.109375 L 3.0625 -5.9375 L 3.09375 -5.9375 C 3.6875 -6.53125 4.316406 -6.828125 4.984375 -6.828125 C 5.316406 -6.828125 5.644531 -6.78125 5.96875 -6.6875 C 6.289062 -6.601562 6.597656 -6.46875 6.890625 -6.28125 C 7.191406 -6.101562 7.429688 -5.847656 7.609375 -5.515625 C 7.796875 -5.191406 7.890625 -4.8125 7.890625 -4.375 L 7.890625 0 L 5.609375 0 L 5.609375 -3.75 C 5.609375 -4.09375 5.5 -4.394531 5.28125 -4.65625 C 5.0625 -4.914062 4.773438 -5.046875 4.421875 -5.046875 C 4.078125 -5.046875 3.765625 -4.910156 3.484375 -4.640625 C 3.203125 -4.367188 3.0625 -4.070312 3.0625 -3.75 L 3.0625 0 Z M 0.78125 0 "/></g></g></g><g clip-path="url(#a30691fb5b)"><g fill="#ffffff" fill-opacity="1"><g transform="translate(66.341189, 22.699058)"><g><path d="M 5.796875 -6.625 L 8.4375 -6.625 L 3.234375 3.359375 L 0.59375 3.359375 L 2.875 -1.03125 L -0.265625 -6.625 L 2.375 -6.625 L 4.21875 -3.234375 Z M 5.796875 -6.625 "/></g></g></g></g></svg>